<?xml version="1.0" encoding="UTF-8"?>
<svg width="188px" height="49px" viewBox="0 0 188 49" version="1.1" xmlns="http://www.w3.org/2000/svg" xmlns:xlink="http://www.w3.org/1999/xlink">
    <!-- Generator: sketchtool 64 (101010) - https://sketch.com -->
    <title>B3F8E2FC-6737-469E-B591-3DEB739E6B5F@1.00x</title>
    <desc>Created with sketchtool.</desc>
    <g id="Full-Width" stroke="none" stroke-width="1" fill="none" fill-rule="evenodd">
        <g id="Header/Light" transform="translate(-255.000000, -33.000000)">
            <g id="Header-logo" transform="translate(255.000000, 24.000000)">
                <rect id="Rectangle" x="0" y="0" width="187" height="64"></rect>
                <path d="M38.1452876,50.9892571 C38.9888492,50.9987761 39.7208656,50.9987761 40.2960213,51.1970886 C41.4323895,51.5937136 42.2881515,52.835943 42.2881515,54.4747973 C42.2881515,55.7852462 41.7478537,56.8878636 40.8694341,57.4939065 C40.149618,57.990481 39.4280591,58 38.0895149,58 L36.0294118,58 L36.0294118,50.9892571 L38.1452876,50.9892571 Z M52.7368132,50.9892571 L55.7677095,58 L54.9799205,58 L54.1067295,55.8851957 L50.6993678,55.8851957 L49.8366342,58 L49.0279305,58 L52.1337712,50.9892571 L52.7368132,50.9892571 Z M67.8024066,50.9892571 L67.8024066,51.5746756 L65.2856648,51.5746756 L65.2856648,58 L64.5309908,58 L64.5309908,51.5746756 L62.0264492,51.5746756 L62.0264492,50.9892571 L67.8024066,50.9892571 Z M77.2889898,50.9892571 L80.319886,58 L79.532097,58 L78.6589061,55.8851957 L75.2515443,55.8851957 L74.3888108,58 L73.580107,58 L76.6859478,50.9892571 L77.2889898,50.9892571 Z M87.3489858,50.9892571 L89.123254,56.8085386 L90.9219227,50.9892571 L91.4134194,50.9892571 L93.2748323,56.8085386 L94.9968136,50.9892571 L95.7253442,50.9892571 L93.5641531,58 L92.9855116,58 L91.178,52.33 L89.3812026,58 L88.8130185,58 L86.5786257,50.9892571 L87.3489858,50.9892571 Z M105.835884,50.7941176 C108.34914,50.7941176 109.089871,52.794694 109.079414,54.3478773 C109.068956,55.3965537 108.725606,56.4563356 108.113849,57.1068006 C107.371376,57.8937045 106.459841,58 105.835884,58 C104.901692,58 104.129589,57.7382275 103.505632,57.0671381 C102.96882,56.5039306 102.550525,55.6012122 102.550525,54.3859533 C102.550525,52.493259 103.580577,50.7941176 105.835884,50.7941176 Z M119.507161,50.9892571 C120.823047,50.9987761 121.154197,50.9987761 121.624779,51.1479071 C122.865721,51.5540511 122.951123,52.655082 122.951123,53.0009389 C122.951123,53.7354884 122.609516,54.1416323 122.384682,54.3510503 C121.839156,54.8270003 121.121082,54.8666628 120.714988,54.8952198 L123.165499,58 L122.266165,58 L119.88014,54.8952198 L118.104129,54.8952198 L118.104129,58 L117.387799,58 L117.387799,50.9892571 L119.507161,50.9892571 Z M131.616802,50.9892571 L131.616802,54.9015658 L135.848554,50.9892571 L136.861177,50.9892571 L133.821566,53.7592859 L137.126097,58 L136.223277,58 L133.313947,54.2066788 L131.616802,55.7455837 L131.616802,58 L130.867357,58 L130.867357,50.9892571 L131.616802,50.9892571 Z M146.99786,50.7941176 C149.028334,50.7941176 149.545974,51.9205325 149.725492,52.2981195 L149.725492,52.2981195 L149.028334,52.6281115 C148.962104,52.4535965 148.871473,52.220381 148.691519,52.017309 C148.299803,51.5413591 147.66016,51.3271816 146.976945,51.3271816 C146.122926,51.3271816 145.113789,51.6381356 145.113789,52.5519595 C145.113789,53.3864584 145.999181,53.6291929 146.448848,53.7465939 C146.673681,53.8037079 147.806564,54.0575479 148.052312,54.1336998 C148.479322,54.2511008 149.882353,54.6493123 149.882353,55.9502422 C149.882353,56.9116611 148.951646,58 146.91943,58 C146.079354,58 145.472826,57.8143795 145.058017,57.5827505 C144.451489,57.2321341 144.11511,56.7276271 143.980907,56.0962002 L143.980907,56.0962002 L144.732095,55.7566892 C144.744295,56.0279807 144.77741,56.3103777 144.923814,56.5531121 C145.281107,57.1940581 146.100269,57.4367926 146.91943,57.4367926 C148.446207,57.4367926 149.118964,56.7085891 149.118964,55.9803857 C149.118964,55.4838112 148.848816,55.2030008 148.636182,55.0570428 C148.277146,54.7952703 147.817021,54.6969073 146.774769,54.4652783 C145.652344,54.2130248 144.385259,53.8528894 144.385259,52.5805165 C144.385259,51.2304051 145.76389,50.7941176 146.99786,50.7941176 Z M105.835884,51.3573251 C103.903012,51.3573251 103.312171,53.0850234 103.312171,54.3970588 C103.312171,55.6694317 103.87164,57.4177546 105.804512,57.4177546 C108.145221,57.4177546 108.307311,54.9110848 108.307311,54.3573963 C108.317768,53.1151669 107.758298,51.3573251 105.835884,51.3573251 Z M38.3952642,51.6048956 L36.7945431,51.6048191 L36.7945431,57.4034761 L37.9884269,57.4034761 C38.64027,57.4034761 39.5518047,57.4145816 40.0816451,57.1956446 C40.8467764,56.8878636 41.5334775,55.9042337 41.5334775,54.5049408 C41.5334775,53.3023739 40.9931797,52.150575 40.0258724,51.7729881 C39.620448,51.6177552 39.225419,51.6058142 38.3952642,51.6048956 Z M52.4248349,51.7729881 L50.9364016,55.3489587 L53.8906104,55.3489587 L52.4248349,51.7729881 Z M76.9770114,51.7729881 L75.4885782,55.3489587 L78.442787,55.3489587 L76.9770114,51.7729881 Z M119.88014,51.5826081 L118.104129,51.5826081 L118.104129,54.3209068 L119.88014,54.3209068 C120.37338,54.3209068 120.833505,54.3113878 121.154197,54.2511008 C121.95593,54.1019699 122.24525,53.5371759 122.24525,52.972382 C122.24525,52.287014 121.880985,51.7714016 121.14374,51.6333761 C120.929364,51.5937136 120.833505,51.5937136 119.88014,51.5826081 Z M27.0690305,22.0419275 L27.0690305,33.8438298 C27.0412745,35.6479753 27.0412745,37.1769931 28.0665114,38.4261169 C29.2305283,39.86978 30.949665,39.9529682 31.725098,39.9529682 C34.0253758,39.9529682 35.8260458,38.8420582 36.4089216,36.7034265 C36.6309695,35.8425146 36.6309695,35.0383613 36.6587255,33.7883709 L36.6587255,22.0419275 L39.2903404,22.0419275 L39.2903404,34.5647948 C39.2625844,35.3706811 39.2625844,36.2320263 39.0422712,37.1211009 C38.4871514,39.4815681 36.2978976,42.1470588 31.725098,42.1470588 C30.2835212,42.1470588 27.5686383,41.9256567 25.7107217,39.5370269 C24.5263609,38.0213619 24.4430185,36.6675473 24.4376535,34.7854726 L24.4373603,22.0419275 L27.0690305,22.0419275 Z M109.249316,22.0419275 L109.249316,36.4538617 C109.249316,37.9534169 109.249316,39.285729 108.088769,40.5357194 C106.702704,42.0361411 104.893361,42.1470588 103.79006,42.1470588 C102.403995,42.1470588 101.555703,41.951653 101.102933,41.8697646 L101.102933,39.0365975 C101.668461,39.3411879 102.461242,39.5924857 103.450049,39.5924857 C104.015577,39.5924857 104.780602,39.5079977 105.318374,39.2025407 C106.485791,38.6168953 106.532488,37.5440994 106.534356,35.5916215 L106.534434,22.0419275 L109.249316,22.0419275 Z M152.938981,21.5635949 C159.856729,21.5635949 161.556783,26.2511672 162.039477,27.5548833 L159.345411,28.1090385 C159.090403,27.3880735 158.892642,26.7502968 158.155373,25.9184141 C157.190852,24.7520453 155.433551,23.6428683 152.911225,23.6428683 C150.783989,23.6428683 148.714867,24.474751 147.410335,26.1129533 C146.135294,27.665801 145.738036,29.7190781 145.738036,31.7160298 C145.738036,36.5699787 148.262097,39.9824308 152.881301,39.9824308 C155.858565,39.9824308 158.892642,38.3463948 159.517151,34.2129777 L162.436735,34.5457308 C161.584973,38.2632065 158.382625,42.1470588 152.571215,42.1470588 C145.965289,42.1470588 142.790697,37.2909436 142.790697,31.8542437 C142.790697,26.306626 146.049858,21.5635949 152.938981,21.5635949 Z M128.036653,22.3161888 L135.128743,41.6687263 L132.393476,41.6687263 L129.492542,33.5734679 L126.647,25.506 L123.66335,33.5734679 L120.652258,41.6687263 L117.890103,41.6687263 L125.286641,22.3850791 C126.168328,22.6415762 127.127644,22.6307444 128.036653,22.3161888 Z M53.7373339,22.0419275 L59.8800817,38.136691 L66.0523203,22.0419275 L69.4784504,22.0419275 L69.4784504,41.6687263 L66.8451008,41.6687263 L67.212,25.211 L60.9001144,41.6687263 L58.8340278,41.6687263 L52.6322985,25.4613119 L52.9167974,41.6687263 L50.3112037,41.6687263 L50.3112037,22.0419275 L53.7373339,22.0419275 Z M88.9197876,22.0419275 C89.886043,22.0419275 90.9910784,22.0419275 92.0128459,22.3746805 C94.3044499,23.1801336 95.3522386,25.3222315 95.3522386,27.6016767 C95.3522386,29.7416083 94.3599619,32.2441887 91.7647767,33.050075 C90.7967865,33.3550987 89.8322658,33.3550987 88.6439624,33.3550987 L88.6439624,33.3550987 L83.0112309,33.3550987 L83.0112309,41.6687263 L80.4993137,41.6687263 L80.4993137,22.0419275 Z M174.208745,22.0419275 L174.208745,31.6324083 L183.718641,22.0419275 L187.011196,22.0419275 L178.892568,30.1592827 L187.352941,41.6687263 L184.115899,41.6687263 L177.046795,32.0206202 L174.208745,34.8303906 L174.208745,41.6687263 L171.5407,41.6687263 L171.5407,22.0419275 L174.208745,22.0419275 Z M8.60609205,21.8907154 C9.59316449,21.8907154 10.7207516,21.8907154 11.7650708,22.2252016 C14.1069826,23.0349874 15.1790577,25.1853175 15.1790577,27.4751612 C15.1790577,29.6241915 14.1642293,32.1384703 11.5117974,32.9478228 C10.5229902,33.2545795 9.53591776,33.2545795 8.32332789,33.2545795 L2.56742919,33.2545795 L2.56742919,41.6028689 L0,41.6028689 L0,21.8907154 Z M89.0308115,24.2927767 L83.0112309,24.2927767 L83.0112309,31.0487906 L88.7095778,31.0486096 C90.0612827,31.0457127 91.0152629,30.9964666 91.8463099,30.1592827 C92.5089842,29.4920435 92.7848094,28.5180475 92.7848094,27.5462179 C92.7848094,26.8789786 92.6755202,25.8235275 91.7647767,25.0432042 C90.9078105,24.3205061 89.941555,24.2927767 89.0308115,24.2927767 L89.0308115,24.2927767 Z M8.71711601,24.1528298 L2.56742919,24.1528298 L2.56742919,30.9374396 L8.38944892,30.9372576 C9.77104534,30.9343453 10.7460586,30.8848353 11.5950654,30.0431658 C12.2733524,29.3724603 12.5543818,28.3954315 12.5543818,27.4197024 C12.5543818,26.7485637 12.4416231,25.6883466 11.5117974,24.9062902 C10.6357489,24.1805592 9.64867647,24.1528298 8.71711601,24.1528298 L8.71711601,24.1528298 Z M138.023172,9 L139.522863,16.0757688 C139.6907,16.6186589 139.414007,17.199677 138.885776,17.4111138 L138.885776,17.4111138 L137.475425,17.9761008 C136.947627,18.1875377 136.346103,17.9587699 136.092396,17.4501083 L136.092396,17.4501083 L134.898021,15.5207471 L129.61354,17.6515799 C129.568003,18.7564241 128.951733,19.8075426 127.899608,20.3551987 C126.651889,21.0055403 125.173883,20.7503429 124.211097,19.8292062 L124.211097,19.8292062 L116.645854,22.8794427 L116.645854,26.9322711 L116.95941,26.9322711 C117.27687,26.9322711 117.53448,27.1961339 117.53448,27.5228212 L117.53448,27.5228212 L117.53448,30.0704619 C117.53448,30.3967159 117.27687,30.661012 116.95941,30.661012 L116.95941,30.661012 L114.732859,30.661012 C114.414967,30.661012 114.157356,30.3967159 114.157356,30.0704619 L114.157356,30.0704619 L114.157356,27.5228212 C114.157356,27.1961339 114.414967,26.9322711 114.732859,26.9322711 L114.732859,26.9322711 L115.402039,26.9322711 L115.402039,23.3807386 L115.401172,23.3816052 L114.513414,21.1554525 L123.22706,17.6420479 C123.183258,16.4483829 123.810803,15.2785479 124.940993,14.6888644 C126.266341,13.9986617 127.850601,14.3296817 128.802111,15.3946649 L128.802111,15.3946649 L133.617776,13.4527387 L132.285054,11.2993757 L138.023172,9 Z" id="Combined-Shape" fill="#15181E"></path>
            </g>
        </g>
    </g>
</svg>